<?xml version="1.0" encoding="UTF-8"?>
<svg width="231px" height="35px" viewBox="0 0 231 35" version="1.1" xmlns="http://www.w3.org/2000/svg" xmlns:xlink="http://www.w3.org/1999/xlink">
    <!-- Generator: sketchtool 53.2 (72643) - https://sketchapp.com -->
    <title>2FD4C905-2FDA-4475-BA11-77B355379710</title>
    <desc>Created with sketchtool.</desc>
    <g id="Page-1" stroke="none" stroke-width="1" fill="none" fill-rule="evenodd">
        <g id="01.Homepage" transform="translate(-165.000000, -1675.000000)" fill="#624FE0">
            <g id="SmartNotes_logotype-Color" transform="translate(165.000000, 1675.000000)">
                <path d="M3,-3.19380969e-14 L21.5681818,-3.17132597e-14 L26,4.7047012 L26,34.6971713 L21.5681818,29.9924701 L3,29.9924701 C1.34314575,29.9924701 -2.41183085e-16,28.6493244 -4.4408921e-16,26.9924701 L-4.4408921e-16,3 C-6.46995335e-16,1.34314575 1.34314575,-3.21141531e-14 3,-3.24185123e-14 Z M6,5 C4.8954305,5 4,5.8954305 4,7 C4,8.1045695 4.8954305,9 6,9 L19,9 C20.1045695,9 21,8.1045695 21,7 C21,5.8954305 20.1045695,5 19,5 L6,5 Z M6,13 C4.8954305,13 4,13.8954305 4,15 C4,16.1045695 4.8954305,17 6,17 L19,17 C20.1045695,17 21,16.1045695 21,15 C21,13.8954305 20.1045695,13 19,13 L6,13 Z M6,21 C4.8954305,21 4,21.8954305 4,23 C4,24.1045695 4.8954305,25 6,25 L11,25 C12.1045695,25 13,24.1045695 13,23 C13,21.8954305 12.1045695,21 11,21 L6,21 Z" id="Rectangle-2" fill-rule="evenodd"></path>
                <path d="M41.3283612,22.3850661 C43.2585164,24.411819 45.750963,25.4251803 48.8057755,25.4251803 C50.1736021,25.4251803 51.2906436,25.1585063 52.1569338,24.6251502 C53.0232239,24.0917942 53.4563625,23.345107 53.4563625,22.3850661 C53.4563625,21.5316965 53.1979991,20.9373944 52.6812646,20.602142 C52.1493321,20.2516509 51.4426323,20.0611695 50.5611441,20.030692 L46.3664971,19.6649639 C44.3755496,19.482099 42.7569791,18.8116043 41.5107372,17.6534598 C40.2340991,16.5257928 39.5805918,14.9486065 39.5501956,12.9218535 C39.5805918,10.4836545 40.43927,8.65503271 42.1262561,7.43593321 C43.7676479,6.21683371 45.8497526,5.6072931 48.3726326,5.6072931 C49.4668938,5.6072931 50.4471548,5.67586642 51.313445,5.81301511 C52.1797351,5.96540255 52.9928198,6.17874176 53.7527234,6.45303915 C55.2117384,7.04735016 56.518753,7.8473722 57.6738065,8.85312929 L54.7329942,12.3046875 C53.8211098,11.6494215 52.8560467,11.1084542 51.8377758,10.6817694 C50.834703,10.3008008 49.6796669,10.1103194 48.3726326,10.1103194 C46.8832215,10.1103194 45.8421692,10.3769934 45.2494443,10.9103494 C44.6263234,11.4437054 44.3147676,12.1294386 44.3147676,12.9675695 C44.2843714,13.5009256 44.519938,13.9657003 45.0214744,14.3619076 C45.4774166,14.8038312 46.2829023,15.0857437 47.4379558,15.2076537 L51.3590389,15.5048077 C53.8211267,15.6876726 55.5992745,16.4343599 56.6935357,17.7448918 C57.7118066,19.0249463 58.2209344,20.6478482 58.2209344,22.6136461 C58.1905382,24.9146964 57.2558708,26.6899834 55.416904,27.9395604 C53.5931353,29.2196149 51.2602662,29.8748711 48.4182266,29.9053486 C44.5579162,29.9053486 41.0852087,28.4881666 38,25.6537603 L41.3283612,22.3850661 Z M60.0923813,5.90444712 L64.8569532,5.90444712 L64.8569532,8.41882727 L64.9481412,8.41882727 C66.5135426,6.54446178 68.5728506,5.6072931 71.1261267,5.6072931 C72.7675186,5.63777059 74.089731,5.91968312 75.0928038,6.45303915 C76.0806785,7.04735016 76.9849503,7.80165666 77.8056462,8.71598128 C79.6598111,6.61303464 82.1446586,5.57681561 85.2602635,5.6072931 C87.2208149,5.6072931 89.0141605,6.30064554 90.6403543,7.68737122 C92.25135,9.08933565 93.0872314,11.1465352 93.1480237,13.8590316 L93.1480237,29.6310525 L88.3834518,29.6310525 L88.3834518,15.5048077 C88.3834518,13.8437846 87.9503132,12.5789879 87.0840231,11.7103795 C86.217733,10.8265323 85.1006914,10.3846154 83.7328649,10.3846154 C82.3650383,10.3846154 81.2403978,10.8265323 80.3589096,11.7103795 C79.4622233,12.5789879 79.0138869,13.8437846 79.0138869,15.5048077 L79.0138869,29.6310525 L74.249315,29.6310525 L74.249315,15.5048077 C74.249315,13.8437846 73.8161765,12.5789879 72.9498863,11.7103795 C72.0683981,10.8265323 70.9437576,10.3846154 69.5759311,10.3846154 C68.2081046,10.3846154 67.091063,10.8265323 66.2247729,11.7103795 C65.3128885,12.5789879 64.8569532,13.8437846 64.8569532,15.5048077 L64.8569532,29.6310525 L60.0923813,29.6310525 L60.0923813,5.90444712 Z M108.811652,27.5281164 L108.720464,27.5281164 C108.27972,28.3357698 107.595817,28.9300719 106.668735,29.3110405 C105.756851,29.7072479 104.495429,29.9053486 102.884434,29.9053486 C100.239969,29.8748711 98.203458,29.1738994 96.7748392,27.8024124 C95.27023,26.461403 94.5179367,24.74707 94.5179367,22.6593621 C94.5179367,20.6630867 95.171444,19.0097078 96.4784783,17.6991758 C97.7855125,16.3581664 99.7004409,15.6724332 102.223321,15.6419557 L108.811652,15.6419557 L108.811652,13.1504336 C108.842049,11.0627257 107.223478,10.0493644 103.955893,10.1103194 C102.770443,10.1103194 101.835775,10.2322275 101.151862,10.4760474 C100.437553,10.7655835 99.8752325,11.253216 99.4648846,11.9389595 L95.7261774,9.08170931 C97.5347481,6.70446528 100.20197,5.54633812 103.727923,5.6072931 C106.706745,5.57681561 109.085207,6.14064067 110.863382,7.2987852 C112.641556,8.48740721 113.545828,10.5293682 113.576224,13.4247296 L113.576224,29.6310525 L108.811652,29.6310525 L108.811652,27.5281164 Z M108.811652,19.5735319 L103.112404,19.5735319 C100.346355,19.6344869 98.9785485,20.5868941 99.0089447,22.4307821 C99.0089447,23.2384355 99.366094,23.9241687 100.080403,24.4880022 C100.764317,25.1127907 101.896556,25.4251803 103.477156,25.4251803 C105.468103,25.4556578 106.873904,25.2194608 107.6946,24.7165822 C108.439305,24.2137037 108.811652,23.0708151 108.811652,21.287882 L108.811652,19.5735319 Z M116.51913,5.90444712 L121.283702,5.90444712 L121.283702,8.41882727 L121.37489,8.41882727 C122.940291,6.54446178 124.992,5.6072931 127.530078,5.6072931 C129.429838,5.63777059 131.086403,6.24731119 132.499823,7.43593321 L129.403748,9.56043956 C127.978989,9.12087912 126.621444,9.10778674 125.331113,9.52116243 C124.235145,10.070613 123.35837,10.6750086 122.700789,11.3343492 C121.714418,12.1585251 121.314098,13.6075849 121.283702,15.3448017 L121.283702,29.6310525 L116.51913,29.6310525 L116.51913,5.90444712 Z M136.514188,5.90444712 L141.623283,5.90444712 L141.623283,9.53886933 L136.514188,9.53886933 L136.514188,23.3679602 C136.483792,24.5718209 137.046112,25.1585038 138.201165,25.1280263 L139.979331,25.1280263 L139.979331,29.6310525 L137.494459,29.6310525 C135.822671,29.6310525 134.454865,29.112943 133.390999,28.0767084 C132.296738,27.0861901 131.749616,25.6537697 131.749616,23.7794042 L131.749616,9.53886933 L129.378728,9.53886933 L129.378728,5.90444712 L131.749616,5.90444712 L136.514188,5.90444712 Z M141.235259,5.90444712 L145.999831,5.90444712 L145.999831,8.41882727 L146.091019,8.41882727 C147.65642,6.54446178 149.708129,5.6072931 152.246207,5.6072931 C154.206759,5.6072931 156.000104,6.30064554 157.626298,7.68737122 C159.237294,9.08933565 160.080774,11.1465352 160.156765,13.8590316 L160.156765,29.6310525 L155.392193,29.6310525 L155.392193,15.5048077 C155.392193,13.8437846 154.951455,12.5789879 154.069967,11.7103795 C153.203677,10.8265323 152.086635,10.3846154 150.718809,10.3846154 C149.350982,10.3846154 148.226342,10.8265323 147.344854,11.7103795 C146.448167,12.5789879 145.999831,13.8437846 145.999831,15.5048077 L145.999831,29.6310525 L141.235259,29.6310525 L141.235259,5.90444712 Z M161.937024,17.7448918 C161.937024,15.2457378 162.142194,13.3256849 162.552542,11.9846755 C162.978088,10.6741435 163.631596,9.56935116 164.513084,8.67026528 C165.166601,7.87785061 166.078472,7.16925965 167.248723,6.54447115 C168.403777,5.95016015 169.885567,5.63777059 171.694137,5.6072931 C173.5635,5.63777059 175.075686,5.95016015 176.230739,6.54447115 C177.370595,7.16925965 178.25207,7.87785061 178.875191,8.67026528 C179.817471,9.56935116 180.486176,10.6741435 180.881326,11.9846755 C181.261278,13.3256849 181.451251,15.2457378 181.451251,17.7448918 C181.451251,20.2440458 181.261278,22.1488602 180.881326,23.4593922 C180.486176,24.7699241 179.817471,25.9051935 178.875191,26.8652344 C178.571229,27.2157255 178.198882,27.5585921 177.758138,27.8938444 C177.362988,28.274813 176.85386,28.6024411 176.230739,28.8767385 C175.075686,29.5320045 173.5635,29.8748711 171.694137,29.9053486 C169.885567,29.8748711 168.403777,29.5320045 167.248723,28.8767385 C166.078472,28.2824275 165.166601,27.6119328 164.513084,26.8652344 C163.631596,25.9051935 162.978088,24.7699241 162.552542,23.4593922 C162.142194,22.1488602 161.937024,20.2440458 161.937024,17.7448918 Z M176.686679,17.7906078 C176.686679,16.0991073 176.61069,14.8647875 176.458709,14.0876116 C176.306729,13.3409132 175.995173,12.685657 175.524032,12.1218235 C175.174477,11.5884675 174.65775,11.1694083 173.973837,10.8646334 C173.32032,10.5446198 172.560427,10.3846154 171.694137,10.3846154 C170.888639,10.3846154 170.143945,10.5446198 169.460032,10.8646334 C168.806515,11.1694083 168.27459,11.5884675 167.864242,12.1218235 C167.453894,12.685657 167.157536,13.3409132 166.975159,14.0876116 C166.792783,14.8647875 166.701595,16.0838688 166.701595,17.7448918 C166.701595,19.3906762 166.792783,20.5945189 166.975159,21.356456 C167.157536,22.133632 167.453894,22.8193652 167.864242,23.4136762 C168.27459,23.8708385 168.806515,24.2746591 169.460032,24.6251502 C170.143945,24.9604026 170.888639,25.1280263 171.694137,25.1280263 C172.560427,25.1280263 173.32032,24.9604026 173.973837,24.6251502 C174.65775,24.2746591 175.174477,23.8708385 175.524032,23.4136762 C175.995173,22.8193652 176.306729,22.133632 176.458709,21.356456 C176.61069,20.5945189 176.686679,19.4059147 176.686679,17.7906078 Z M188.269646,5.90444712 L191.734789,5.90444712 L191.734789,9.53886933 L188.269646,9.53886933 L188.269646,23.3679602 C188.23925,24.5718209 188.80157,25.1585038 189.956623,25.1280263 L191.734789,25.1280263 L191.734789,29.6310525 L189.249917,29.6310525 C187.578129,29.6310525 186.210323,29.112943 185.146458,28.0767084 C184.052196,27.0861901 183.505074,25.6537697 183.505074,23.7794042 L183.505074,9.53886933 L181.134186,9.53886933 L181.134186,5.90444712 L183.505074,5.90444712 L188.269646,5.90444712 Z M196.592642,19.5735319 C196.592642,21.4783749 197.139765,22.9260339 198.234026,23.9165522 C199.252297,24.9223093 200.589707,25.4251803 202.246297,25.4251803 C204.176452,25.4251803 205.901408,24.6556353 207.421215,23.1165221 L210.863561,26.0652043 C208.447067,28.6557908 205.605071,29.935826 202.337485,29.9053486 C201.091243,29.9053486 199.875415,29.7224864 198.689966,29.3567565 C198.097241,29.1586529 197.519723,28.8919788 196.957394,28.5567265 C196.364669,28.2671903 195.809948,27.9090852 195.293214,27.4824004 C194.290141,26.5985533 193.477056,25.3642335 192.853935,23.7794042 C192.170022,22.2555298 191.82807,20.2745228 191.82807,17.8363238 C191.82807,15.4895573 192.124428,13.5390273 192.717153,11.9846755 C193.309878,10.3998461 194.06977,9.15028788 194.996853,8.23596326 C195.939133,7.30639989 196.995383,6.63590522 198.165635,6.22445913 C199.320688,5.81301305 200.460527,5.6072931 201.585184,5.6072931 C204.290441,5.63777059 206.577717,6.52922372 208.44708,8.28167926 C210.346839,10.0646123 211.311902,12.5180132 211.342298,15.6419557 L211.342298,19.5735319 L196.592642,19.5735319 Z M206.577726,15.6419557 C206.516934,13.7980677 206.023004,12.4037436 205.095921,11.4589414 C204.184037,10.5598556 203.013803,10.1103194 201.585184,10.1103194 C200.156565,10.1103194 198.986331,10.5598556 198.074447,11.4589414 C197.177761,12.4037436 196.683831,13.7980677 196.592642,15.6419557 L206.577726,15.6419557 Z M213.829264,22.3850661 C215.759419,24.411819 218.251865,25.4251803 221.306678,25.4251803 C222.674504,25.4251803 223.791546,25.1585063 224.657836,24.6251502 C225.524126,24.0917942 225.957265,23.345107 225.957265,22.3850661 C225.957265,21.5316965 225.698902,20.9373944 225.182167,20.602142 C224.650235,20.2516509 223.943535,20.0611695 223.062047,20.030692 L218.867399,19.6649639 C216.876452,19.482099 215.257882,18.8116043 214.01164,17.6534598 C212.735002,16.5257928 212.081494,14.9486065 212.051098,12.9218535 C212.081494,10.4836545 212.940172,8.65503271 214.627158,7.43593321 C216.26855,6.21683371 218.350655,5.6072931 220.873535,5.6072931 C221.967796,5.6072931 222.948057,5.67586642 223.814347,5.81301511 C224.680637,5.96540255 225.493722,6.17874176 226.253626,6.45303915 C227.712641,7.04735016 229.019655,7.8473722 230.174709,8.85312929 L227.233897,12.3046875 C226.322012,11.6494215 225.356949,11.1084542 224.338678,10.6817694 C223.335605,10.3008008 222.180569,10.1103194 220.873535,10.1103194 C219.384124,10.1103194 218.343072,10.3769934 217.750347,10.9103494 C217.127226,11.4437054 216.81567,12.1294386 216.81567,12.9675695 C216.785274,13.5009256 217.02084,13.9657003 217.522377,14.3619076 C217.978319,14.8038312 218.783805,15.0857437 219.938858,15.2076537 L223.859941,15.5048077 C226.322029,15.6876726 228.100177,16.4343599 229.194438,17.7448918 C230.212709,19.0249463 230.721837,20.6478482 230.721837,22.6136461 C230.691441,24.9146964 229.756773,26.6899834 227.917806,27.9395604 C226.094038,29.2196149 223.761169,29.8748711 220.919129,29.9053486 C217.058819,29.9053486 213.586111,28.4881666 210.500902,25.6537603 L213.829264,22.3850661 Z M131.705281,1.48883375 L136.637138,9.9475983e-14 L136.637138,4.61538462 L131.705281,4.61538462 L131.705281,1.48883375 Z M183.654174,1.48883375 L188.586031,9.9475983e-14 L188.586031,4.61538462 L183.654174,4.61538462 L183.654174,1.48883375 Z" id="smartnotes" fill-rule="nonzero"></path>
            </g>
        </g>
    </g>
</svg>