<?xml version="1.0" encoding="UTF-8"?>
<svg width="361px" height="504px" viewBox="0 0 361 504" version="1.1" xmlns="http://www.w3.org/2000/svg" xmlns:xlink="http://www.w3.org/1999/xlink">
    <!-- Generator: sketchtool 53.2 (72643) - https://sketchapp.com -->
    <title>C1885B49-7510-4DE6-BDEE-F1C49CE2995E</title>
    <desc>Created with sketchtool.</desc>
    <defs>
        <rect id="path-1" x="129" y="41" width="211" height="165" rx="5"></rect>
        <filter x="-8.3%" y="-9.4%" width="116.6%" height="121.2%" filterUnits="objectBoundingBox" id="filter-2">
            <feOffset dx="0" dy="2" in="SourceAlpha" result="shadowOffsetOuter1"></feOffset>
            <feGaussianBlur stdDeviation="5.5" in="shadowOffsetOuter1" result="shadowBlurOuter1"></feGaussianBlur>
            <feColorMatrix values="0 0 0 0 0   0 0 0 0 0   0 0 0 0 0  0 0 0 0.124672203 0" type="matrix" in="shadowBlurOuter1"></feColorMatrix>
        </filter>
        <rect id="path-3" x="59" y="168" width="211" height="165" rx="5"></rect>
        <filter x="-8.3%" y="-9.4%" width="116.6%" height="121.2%" filterUnits="objectBoundingBox" id="filter-4">
            <feOffset dx="0" dy="2" in="SourceAlpha" result="shadowOffsetOuter1"></feOffset>
            <feGaussianBlur stdDeviation="5.5" in="shadowOffsetOuter1" result="shadowBlurOuter1"></feGaussianBlur>
            <feColorMatrix values="0 0 0 0 0   0 0 0 0 0   0 0 0 0 0  0 0 0 0.124672203 0" type="matrix" in="shadowBlurOuter1"></feColorMatrix>
        </filter>
        <rect id="path-5" x="129" y="282" width="211" height="165" rx="5"></rect>
        <filter x="-8.3%" y="-9.4%" width="116.6%" height="121.2%" filterUnits="objectBoundingBox" id="filter-6">
            <feOffset dx="0" dy="2" in="SourceAlpha" result="shadowOffsetOuter1"></feOffset>
            <feGaussianBlur stdDeviation="5.5" in="shadowOffsetOuter1" result="shadowBlurOuter1"></feGaussianBlur>
            <feColorMatrix values="0 0 0 0 0   0 0 0 0 0   0 0 0 0 0  0 0 0 0.124672203 0" type="matrix" in="shadowBlurOuter1"></feColorMatrix>
        </filter>
        <rect id="path-7" x="129" y="41" width="211" height="165" rx="5"></rect>
        <filter x="-8.3%" y="-9.4%" width="116.6%" height="121.2%" filterUnits="objectBoundingBox" id="filter-8">
            <feOffset dx="0" dy="2" in="SourceAlpha" result="shadowOffsetOuter1"></feOffset>
            <feGaussianBlur stdDeviation="5.5" in="shadowOffsetOuter1" result="shadowBlurOuter1"></feGaussianBlur>
            <feColorMatrix values="0 0 0 0 0   0 0 0 0 0   0 0 0 0 0  0 0 0 0.124672203 0" type="matrix" in="shadowBlurOuter1"></feColorMatrix>
        </filter>
        <rect id="path-9" x="59" y="168" width="211" height="165" rx="5"></rect>
        <filter x="-8.3%" y="-9.4%" width="116.6%" height="121.2%" filterUnits="objectBoundingBox" id="filter-10">
            <feOffset dx="0" dy="2" in="SourceAlpha" result="shadowOffsetOuter1"></feOffset>
            <feGaussianBlur stdDeviation="5.5" in="shadowOffsetOuter1" result="shadowBlurOuter1"></feGaussianBlur>
            <feColorMatrix values="0 0 0 0 0   0 0 0 0 0   0 0 0 0 0  0 0 0 0.124672203 0" type="matrix" in="shadowBlurOuter1"></feColorMatrix>
        </filter>
        <rect id="path-11" x="129" y="282" width="211" height="165" rx="5"></rect>
        <filter x="-8.3%" y="-9.4%" width="116.6%" height="121.2%" filterUnits="objectBoundingBox" id="filter-12">
            <feOffset dx="0" dy="2" in="SourceAlpha" result="shadowOffsetOuter1"></feOffset>
            <feGaussianBlur stdDeviation="5.5" in="shadowOffsetOuter1" result="shadowBlurOuter1"></feGaussianBlur>
            <feColorMatrix values="0 0 0 0 0   0 0 0 0 0   0 0 0 0 0  0 0 0 0.124672203 0" type="matrix" in="shadowBlurOuter1"></feColorMatrix>
        </filter>
    </defs>
    <g id="Symbols" stroke="none" stroke-width="1" fill="none" fill-rule="evenodd">
        <g id="header_img">
            <g id="phone_" opacity="0.200000003" transform="translate(6.000000, 6.000000)">
                <g id="Rectangle" fill-rule="evenodd">
                    <rect fill="#2B2F3A" x="0" y="0" width="244" height="493" rx="22"></rect>
                    <path d="M107,0 L138,0 L138,21 C138,23.209139 136.209139,25 134,25 L111,25 C108.790861,25 107,23.209139 107,21 L107,0 Z" fill="#FFFFFF"></path>
                    <circle id="Oval" fill="#2B2F3A" cx="122" cy="13" r="4"></circle>
                    <rect fill="#959AAF" x="82" y="468" width="80" height="6" rx="3"></rect>
                </g>
                <g id="Rectangle">
                    <use fill="black" fill-opacity="1" filter="url(#filter-2)" xlink:href="#path-1"></use>
                    <use fill="#FFFFFF" fill-rule="evenodd" xlink:href="#path-1"></use>
                </g>
                <g id="Group-2" transform="translate(154.000000, 136.000000)" fill="#000000" fill-opacity="0.197852928" fill-rule="evenodd" opacity="0.400000006" stroke-width="1">
                    <g>
                        <rect id="Rectangle-Copy-26" x="0" y="0" width="19" height="9" rx="4"></rect>
                        <rect id="Rectangle-Copy-25" x="0" y="15" width="40" height="9" rx="4"></rect>
                        <rect id="Rectangle-Copy-28" x="0" y="30" width="53" height="9" rx="4"></rect>
                        <rect id="Rectangle-Copy-29" x="60" y="30" width="18" height="9" rx="4"></rect>
                        <rect id="Rectangle-Copy-30" x="83" y="30" width="38" height="9" rx="4"></rect>
                        <rect id="Rectangle-Copy-31" x="124" y="30" width="21" height="9" rx="4"></rect>
                        <rect id="Rectangle-Copy-32" x="2" y="45" width="128" height="9" rx="4"></rect>
                        <rect id="Rectangle-Copy-24" x="46" y="15" width="60" height="9" rx="4"></rect>
                        <rect id="Rectangle-Copy-23" x="109" y="15" width="21" height="9" rx="4"></rect>
                        <rect id="Rectangle-Copy-27" x="136" y="15" width="18" height="9" rx="4"></rect>
                        <rect id="Rectangle-Copy-22" x="25" y="0" width="53" height="9" rx="4"></rect>
                        <rect id="Rectangle-Copy-21" x="82" y="0" width="38" height="9" rx="4"></rect>
                        <rect id="Rectangle-Copy-20" x="124" y="0" width="38" height="9" rx="4"></rect>
                    </g>
                </g>
                <g id="Rectangle-Copy-3">
                    <use fill="black" fill-opacity="1" filter="url(#filter-4)" xlink:href="#path-3"></use>
                    <use fill="#FFFFFF" fill-rule="evenodd" xlink:href="#path-3"></use>
                </g>
                <rect id="Rectangle-Copy-18" fill-opacity="0.197852928" fill="#000000" fill-rule="evenodd" opacity="0.400000006" x="79" y="288" width="55" height="9" rx="4"></rect>
                <rect id="Rectangle-Copy-17" fill-opacity="0.197852928" fill="#000000" fill-rule="evenodd" opacity="0.400000006" x="79" y="303" width="40" height="9" rx="4"></rect>
                <rect id="Rectangle-Copy-16" fill-opacity="0.197852928" fill="#000000" fill-rule="evenodd" opacity="0.400000006" x="125" y="303" width="60" height="9" rx="4"></rect>
                <rect id="Rectangle-Copy-15" fill-opacity="0.197852928" fill="#000000" fill-rule="evenodd" opacity="0.400000006" x="188" y="303" width="26" height="9" rx="4"></rect>
                <rect id="Rectangle-Copy-14" fill-opacity="0.197852928" fill="#000000" fill-rule="evenodd" opacity="0.400000006" x="138" y="288" width="19" height="9" rx="4"></rect>
                <rect id="Rectangle-Copy-13" fill-opacity="0.197852928" fill="#000000" fill-rule="evenodd" opacity="0.400000006" x="161" y="288" width="40" height="9" rx="4"></rect>
                <rect id="Rectangle-Copy-12" fill-opacity="0.197852928" fill="#000000" fill-rule="evenodd" opacity="0.400000006" x="203" y="288" width="21" height="9" rx="4"></rect>
                <g id="Rectangle-Copy-4">
                    <use fill="black" fill-opacity="1" filter="url(#filter-6)" xlink:href="#path-5"></use>
                    <use fill="#4C3AC3" fill-rule="evenodd" xlink:href="#path-5"></use>
                </g>
                <text id="Meet-me-for-coffe" font-family="Roboto-Bold, Roboto" font-size="24" font-weight="bold" line-spacing="24" fill="#FFFFFF">
                    <tspan x="149" y="367">Meet me</tspan>
                    <tspan x="149" y="391">for coffe</tspan>
                </text>
                <text id="Investment-opportuni" font-family="Roboto-Bold, Roboto" font-size="24" font-weight="bold" line-spacing="24" fill="#2B2F3A">
                    <tspan x="80" y="250">Investment</tspan>
                    <tspan x="80" y="274">opportunity</tspan>
                </text>
                <text id="My-first-note" font-family="Roboto-Bold, Roboto" font-size="24" font-weight="bold" line-spacing="24" fill="#2B2F3A">
                    <tspan x="156" y="120">My first note</tspan>
                </text>
                <rect id="Rectangle" fill="#FFFFFF" fill-rule="evenodd" opacity="0.400000006" x="148" y="405" width="55" height="9" rx="4"></rect>
                <rect id="Rectangle-Copy-8" fill="#FFFFFF" fill-rule="evenodd" opacity="0.400000006" x="148" y="420" width="40" height="9" rx="4"></rect>
                <rect id="Rectangle-Copy-9" fill="#FFFFFF" fill-rule="evenodd" opacity="0.400000006" x="193" y="420" width="60" height="9" rx="4"></rect>
                <rect id="Rectangle-Copy-10" fill="#FFFFFF" fill-rule="evenodd" opacity="0.400000006" x="257" y="420" width="26" height="9" rx="4"></rect>
                <rect id="Rectangle-Copy-5" fill="#FFFFFF" fill-rule="evenodd" opacity="0.400000006" x="207" y="405" width="19" height="9" rx="4"></rect>
                <rect id="Rectangle-Copy-6" fill="#FFFFFF" fill-rule="evenodd" opacity="0.400000006" x="230" y="405" width="40" height="9" rx="4"></rect>
                <rect id="Rectangle-Copy-11" fill="#4C3AC3" fill-rule="evenodd" x="79" y="184" width="95" height="40" rx="4"></rect>
                <rect id="Rectangle-Copy-20" fill="#4C3AC3" fill-rule="evenodd" x="152" y="53" width="95" height="40" rx="4"></rect>
                <rect id="Rectangle-Copy-19" fill="#FFFFFF" fill-rule="evenodd" opacity="0.889484744" x="148" y="296" width="95" height="40" rx="4"></rect>
                <rect id="Rectangle-Copy-7" fill="#FFFFFF" fill-rule="evenodd" opacity="0.400000006" x="272" y="405" width="21" height="9" rx="4"></rect>
            </g>
            <g id="phone_">
                <g id="Rectangle" fill-rule="evenodd">
                    <rect fill="#2B2F3A" x="0" y="0" width="244" height="493" rx="22"></rect>
                    <path d="M107,0 L138,0 L138,21 C138,23.209139 136.209139,25 134,25 L111,25 C108.790861,25 107,23.209139 107,21 L107,0 Z" fill="#FFFFFF"></path>
                    <circle id="Oval" fill="#2B2F3A" cx="122" cy="13" r="4"></circle>
                    <rect fill="#959AAF" x="82" y="468" width="80" height="6" rx="3"></rect>
                </g>
                <g id="Rectangle">
                    <use fill="black" fill-opacity="1" filter="url(#filter-8)" xlink:href="#path-7"></use>
                    <use fill="#FFFFFF" fill-rule="evenodd" xlink:href="#path-7"></use>
                </g>
                <g id="Group-2" transform="translate(154.000000, 136.000000)" fill="#000000" fill-opacity="0.197852928" fill-rule="evenodd" opacity="0.400000006" stroke-width="1">
                    <g>
                        <rect id="Rectangle-Copy-26" x="0" y="0" width="19" height="9" rx="4"></rect>
                        <rect id="Rectangle-Copy-25" x="0" y="15" width="40" height="9" rx="4"></rect>
                        <rect id="Rectangle-Copy-28" x="0" y="30" width="53" height="9" rx="4"></rect>
                        <rect id="Rectangle-Copy-29" x="60" y="30" width="18" height="9" rx="4"></rect>
                        <rect id="Rectangle-Copy-30" x="83" y="30" width="38" height="9" rx="4"></rect>
                        <rect id="Rectangle-Copy-31" x="124" y="30" width="21" height="9" rx="4"></rect>
                        <rect id="Rectangle-Copy-32" x="2" y="45" width="128" height="9" rx="4"></rect>
                        <rect id="Rectangle-Copy-24" x="46" y="15" width="60" height="9" rx="4"></rect>
                        <rect id="Rectangle-Copy-23" x="109" y="15" width="21" height="9" rx="4"></rect>
                        <rect id="Rectangle-Copy-27" x="136" y="15" width="18" height="9" rx="4"></rect>
                        <rect id="Rectangle-Copy-22" x="25" y="0" width="53" height="9" rx="4"></rect>
                        <rect id="Rectangle-Copy-21" x="82" y="0" width="38" height="9" rx="4"></rect>
                        <rect id="Rectangle-Copy-20" x="124" y="0" width="38" height="9" rx="4"></rect>
                    </g>
                </g>
                <g id="Rectangle-Copy-3">
                    <use fill="black" fill-opacity="1" filter="url(#filter-10)" xlink:href="#path-9"></use>
                    <use fill="#FFFFFF" fill-rule="evenodd" xlink:href="#path-9"></use>
                </g>
                <rect id="Rectangle-Copy-18" fill-opacity="0.197852928" fill="#000000" fill-rule="evenodd" opacity="0.400000006" x="79" y="288" width="55" height="9" rx="4"></rect>
                <rect id="Rectangle-Copy-17" fill-opacity="0.197852928" fill="#000000" fill-rule="evenodd" opacity="0.400000006" x="79" y="303" width="40" height="9" rx="4"></rect>
                <rect id="Rectangle-Copy-16" fill-opacity="0.197852928" fill="#000000" fill-rule="evenodd" opacity="0.400000006" x="125" y="303" width="60" height="9" rx="4"></rect>
                <rect id="Rectangle-Copy-15" fill-opacity="0.197852928" fill="#000000" fill-rule="evenodd" opacity="0.400000006" x="188" y="303" width="26" height="9" rx="4"></rect>
                <rect id="Rectangle-Copy-14" fill-opacity="0.197852928" fill="#000000" fill-rule="evenodd" opacity="0.400000006" x="138" y="288" width="19" height="9" rx="4"></rect>
                <rect id="Rectangle-Copy-13" fill-opacity="0.197852928" fill="#000000" fill-rule="evenodd" opacity="0.400000006" x="161" y="288" width="40" height="9" rx="4"></rect>
                <rect id="Rectangle-Copy-12" fill-opacity="0.197852928" fill="#000000" fill-rule="evenodd" opacity="0.400000006" x="203" y="288" width="21" height="9" rx="4"></rect>
                <g id="Rectangle-Copy-4">
                    <use fill="black" fill-opacity="1" filter="url(#filter-12)" xlink:href="#path-11"></use>
                    <use fill="#4C3AC3" fill-rule="evenodd" xlink:href="#path-11"></use>
                </g>
                <text id="Meet-me-for-coffe" font-family="Roboto-Bold, Roboto" font-size="24" font-weight="bold" line-spacing="24" fill="#FFFFFF">
                    <tspan x="149" y="367">Meet me</tspan>
                    <tspan x="149" y="391">for coffe</tspan>
                </text>
                <text id="Investment-opportuni" font-family="Roboto-Bold, Roboto" font-size="24" font-weight="bold" line-spacing="24" fill="#2B2F3A">
                    <tspan x="80" y="250">Investment</tspan>
                    <tspan x="80" y="274">opportunity</tspan>
                </text>
                <text id="My-first-note" font-family="Roboto-Bold, Roboto" font-size="24" font-weight="bold" line-spacing="24" fill="#2B2F3A">
                    <tspan x="156" y="120">My first note</tspan>
                </text>
                <rect id="Rectangle" fill="#FFFFFF" fill-rule="evenodd" opacity="0.400000006" x="148" y="405" width="55" height="9" rx="4"></rect>
                <rect id="Rectangle-Copy-8" fill="#FFFFFF" fill-rule="evenodd" opacity="0.400000006" x="148" y="420" width="40" height="9" rx="4"></rect>
                <rect id="Rectangle-Copy-9" fill="#FFFFFF" fill-rule="evenodd" opacity="0.400000006" x="193" y="420" width="60" height="9" rx="4"></rect>
                <rect id="Rectangle-Copy-10" fill="#FFFFFF" fill-rule="evenodd" opacity="0.400000006" x="257" y="420" width="26" height="9" rx="4"></rect>
                <rect id="Rectangle-Copy-5" fill="#FFFFFF" fill-rule="evenodd" opacity="0.400000006" x="207" y="405" width="19" height="9" rx="4"></rect>
                <rect id="Rectangle-Copy-6" fill="#FFFFFF" fill-rule="evenodd" opacity="0.400000006" x="230" y="405" width="40" height="9" rx="4"></rect>
                <rect id="Rectangle-Copy-11" fill="#4C3AC3" fill-rule="evenodd" x="79" y="184" width="95" height="40" rx="4"></rect>
                <rect id="Rectangle-Copy-20" fill="#4C3AC3" fill-rule="evenodd" x="152" y="53" width="95" height="40" rx="4"></rect>
                <rect id="Rectangle-Copy-19" fill="#FFFFFF" fill-rule="evenodd" opacity="0.889484744" x="148" y="296" width="95" height="40" rx="4"></rect>
                <rect id="Rectangle-Copy-7" fill="#FFFFFF" fill-rule="evenodd" opacity="0.400000006" x="272" y="405" width="21" height="9" rx="4"></rect>
            </g>
        </g>
    </g>
</svg>